<?xml version="1.0" encoding="iso-8859-1" ?><svg xmlns="http://www.w3.org/2000/svg" xmlns:xlink="http://www.w3.org/1999/xlink"><symbol viewBox="0 0 512 512" id="axios"><path d="M464 0H48C21.49 0 0 21.49 0 48v416c0 26.51 21.49 48 48 48h416c26.51 0 48-21.49 48-48V48c0-26.51-21.49-48-48-48zm16 464c0 8.837-7.163 16-16 16H48c-8.837 0-16-7.163-16-16V160h448v304zm0-336H32V48c0-8.837 7.163-16 16-16h416c8.837 0 16 7.163 16 16v80z"/><path d="M64 64h32v32H64zM128 64h32v32h-32zM416 64h32v32h-32zM96 336h32v48h32V256h-32v48H96v-48H64v128h32zM192 384h32v-96h16v-32h-64v32h16zM272 384h32v-96h16v-32h-64v32h16zM368 352h64c8.837 0 16-7.163 16-16v-48c0-17.673-14.327-32-32-32h-64c-8.837 0-16 7.163-16 16v112h32v-32zm0-64h48v32h-48v-32z"/></symbol><symbol class="bsvg-inline--fa bfa-terminal bfa-w-20" viewBox="0 0 640 512" id="cli"><path fill="currentColor" d="M257.981 272.971L63.638 467.314c-9.373 9.373-24.569 9.373-33.941 0L7.029 444.647c-9.357-9.357-9.375-24.522-.04-33.901L161.011 256 6.99 101.255c-9.335-9.379-9.317-24.544.04-33.901l22.667-22.667c9.373-9.373 24.569-9.373 33.941 0L257.981 239.03c9.373 9.372 9.373 24.568 0 33.941zM640 456v-32c0-13.255-10.745-24-24-24H312c-13.255 0-24 10.745-24 24v32c0 13.255 10.745 24 24 24h304c13.255 0 24-10.745 24-24z"/></symbol><symbol viewBox="0 0 24 24" id="gulp"><title/><path d="M15.156 19.432l.636-1.084s-1.444.591-3.86.591c-2.418 0-3.84-.568-3.84-.568l.711 1.183.252 3.729c0 .403 1.314.718 2.936.718 1.623 0 2.938-.314 2.938-.718l.229-3.835v-.016zm.615-7.046c-.769.046-1.153.903-1.539 1.805-.143.33-.63 1.737-.948 1.563-.318-.173.413-1.329.619-2.017-.237.174-1.105.849-1.329.215-.358.314-1.129.48-1.042-.329-.191.345-.621.823-1.139.614-.673-.255.395-2.411.66-2.307.266.121-.053.6-.136.794-.186.419-.398.958-.255 1.063.24.194.904-.703.919-.719.124-.165.479-1.229.763-1.107.285.134-.711 1.541-.34 1.826.076.06.383-.03.569-.239.12-.12.078-.42.479-1.378.404-.959.764-2.156 1.039-2.066s.049.703-.051.943c-.464 1.078-1.268 2.844-.89 2.71.374-.135.569-.135.943-.569.374-.434.345-1.152.599-1.137.24.014.21.254.15.418.24-.27 1.152-.868 1.363-.284.254.688-1.304 1.692-.914 1.632.375-.045.988-.434 1.258-.793l.719-6.5s-.734.6-5.361.6-5.284-.584-5.284-.584l.613 5.93c.33-.928 1.108-2.814 2.322-2.74.554.03 1.303 1.109.658 1.139-.27.015-.3-.539-.614-.614-.239-.046-.554.135-.763.345-.404.404-1.304 2.006-1.184 2.801.15 1.018 1.407-.346 1.617-.75.149-.283.254-1.138.568-1.048.33.09-.029.974-.27 1.737-.27.869-.404 1.781-.732 1.676-.33-.104.209-1.227.178-1.422-.313.299-.883 1.02-1.631.659l.374 3.699s1.019.793 4.073.793 4.118-.793 4.118-.793l.479-4.283c-.389.39-1.617 1.063-1.692.3-.059-.614 1.333-1.498.974-1.514l.06-.069zM17.346.669l-2.659 2.8-.486 1.901c1.881.12 3.189.386 3.189.694 0 .419-2.414.757-5.391.757s-5.39-.343-5.39-.763c0-.419 2.414-.764 5.391-.764.423 0 .844 0 1.264.016l.561-2.276L16.65.039c.068-.09.28-.015.474.15.194.149.299.344.239.434v.03l-.017.016zm-3.834 5.795s-.523 0-.61-.08a.14.14 0 01-.036-.09c0-.058.039-.091.09-.11l.044.075c-.021.006-.029.015-.033.023 0 .041.314.069.555.066.239-.003.531-.023.533-.064 0-.012-.023-.023-.061-.033l.045-.072c.063.02.117.058.117.121 0 .11-.141.128-.23.141-.107.015-.412.023-.412.023h-.002z"/></symbol><symbol viewBox="0 0 512 512" id="router"><path d="M371.244 114.479c0-24.831-20.188-45.031-45.004-45.031-24.814 0-45.003 20.201-45.003 45.031s20.188 45.031 45.003 45.031c24.816.001 45.004-20.2 45.004-45.031zm-45.004 15.032c-8.272 0-15.003-6.743-15.003-15.031s6.73-15.031 15.003-15.031 15.004 6.743 15.004 15.031-6.73 15.031-15.004 15.031z"/><path d="M455.496 353.367H177.378c-14.08 0-25.534-11.472-25.534-25.573s11.454-25.573 25.534-25.573H326.24c5.461 0 9.639-2.658 12.93-7.181l78.874-108.502C476.134 111.037 422.517 0 326.241 0 231.9 0 176.198 107.818 233.917 185.876l64.057 86.345H177.378c-30.622 0-55.534 24.93-55.534 55.573s24.912 55.573 55.534 55.573h278.118c14.614 0 26.504 11.907 26.504 26.543s-11.89 26.543-26.504 26.543H119.128c-6.686-26.154-30.433-45.547-58.623-45.547C27.143 390.905 0 418.067 0 451.453S27.143 512 60.505 512c28.19 0 51.937-19.394 58.623-45.547h336.368c31.156 0 56.504-25.365 56.504-56.543s-25.348-56.543-56.504-56.543zM257.922 167.861C215.368 111.889 255.087 30 326.241 30c71.611 0 111.066 82.727 67.826 138.503-.126.162-67.07 92.261-67.153 92.375-.075-.1-68.915-92.917-68.992-93.017zM60.505 482C43.685 482 30 468.296 30 451.453s13.685-30.547 30.505-30.547S91.01 434.61 91.01 451.453 77.325 482 60.505 482z"/></symbol><symbol viewBox="0 0 384 384" id="sh"><path d="M64 0v80H0v144h64v160h224l96-96V0H64zM16 208V96h240v112H16zm272 153.376V288h73.376L288 361.376zM368 272h-96v96H80V224h192V80H80V16h288v256z"/><path d="M91.12 160.976c-.4-1.744-1.072-3.312-2.064-4.752s-2.32-2.784-3.984-4.032c-1.664-1.264-3.808-2.464-6.432-3.616l-10.656-4.608c-2.928-1.2-4.848-2.528-5.744-3.984-.912-1.44-1.344-3.2-1.344-5.328 0-1.024.112-2.016.336-2.976a6.3 6.3 0 011.28-2.576c.608-.736 1.424-1.328 2.448-1.776 1.008-.432 2.288-.672 3.824-.672 2.688 0 4.608.896 5.76 2.64 1.152 1.776 1.728 4.288 1.728 7.552H89.52v-1.92c0-3.264-.544-6.064-1.6-8.4-1.04-2.32-2.528-4.24-4.4-5.744-1.888-1.52-4.144-2.592-6.736-3.264-2.576-.672-5.424-1.008-8.48-1.008-6.592 0-11.792 1.664-15.568 4.992s-5.664 8.368-5.664 15.152c0 2.832.336 5.296 1.04 7.456a15.298 15.298 0 003.312 5.664c1.52 1.648 3.376 3.072 5.632 4.272 2.24 1.216 4.896 2.352 7.968 3.376 2.288.768 4.224 1.52 5.792 2.256 1.568.736 2.832 1.536 3.792 2.448.976.88 1.664 1.888 2.064 3.008.416 1.12.624 2.448.624 3.984 0 2.864-.848 5.008-2.544 6.384-1.68 1.376-3.584 2.064-5.696 2.064-1.792 0-3.28-.272-4.464-.768-1.184-.512-2.128-1.216-2.832-2.128-.704-.896-1.184-2-1.44-3.312a22.454 22.454 0 01-.416-4.352v-2H46.08v2.784c0 6.336 1.68 11.2 5.04 14.592 3.36 3.392 8.944 5.088 16.752 5.088 7.488 0 13.328-1.664 17.52-4.96 4.208-3.296 6.304-8.56 6.304-15.792 0-2.096-.192-4.032-.576-5.744zM138.2 117.9v26.2H122v-26.2h-13.8v68.5H122V156h16.2v30.4H152v-68.5z"/></symbol><symbol viewBox="0 0 0 0" id="sprite"/><symbol viewBox="0 0 512 512" id="storage"><path d="M512 150.637V0H0v150.637h30.023v30.047H0v150.632h30.023v30.051H0V512h512V361.363h-30.023v-30.047H512V180.684h-30.023v-30.047zM30 30h452v90.637H30zm452 452H30v-90.637h452zm-30.023-120.637H60.023v-30.047h391.954zM482 301.316H30v-90.632h452zm-30.023-120.632H60.023v-30.047h391.954zm0 0"/><path d="M321.965 60.316h130v30h-130zm0 0M321.965 241h130v30h-130zm0 0M321.965 421.684h130v30h-130zm0 0M60.035 60.316H90.06v30H60.035zm0 0M120.086 60.316h30.023v30h-30.023zm0 0M60.035 241H90.06v30H60.035zm0 0M120.086 241h30.023v30h-30.023zm0 0M60.035 421.684H90.06v30H60.035zm0 0M120.086 421.684h30.023v30h-30.023zm0 0"/></symbol><symbol viewBox="0 0 64 64" id="test"><g data-name="Layer 7"><path d="M10 11h2v8h2v-8h2V9h-6zM34 11h2v8h2v-8h2V9h-6zM18 10v8a1 1 0 001 1h5v-2h-4v-2h4v-2h-4v-2h4V9h-5a1 1 0 00-1 1zM26 12a3 3 0 003 3 1 1 0 010 2h-3v2h3a3 3 0 000-6 1 1 0 010-2h3V9h-3a3 3 0 00-3 3z"/><path d="M7 23h36a1 1 0 001-1V6a1 1 0 00-1-1H7a1 1 0 00-1 1v16a1 1 0 001 1zM8 7h34v14H8zM6 35h6a1 1 0 001-1v-5.59l2.71-2.7-1.42-1.42-2.7 2.71H6a1 1 0 00-1 1v6a1 1 0 001 1zm5-2H8.41L11 30.41zm-1.41-4L7 31.59V29zM12 47H6a1 1 0 00-1 1v6a1 1 0 001 1h6a1 1 0 001-1v-6a1 1 0 00-1-1zm-1 6H7v-4h4zM13.29 35.29L11.59 37H6a1 1 0 00-1 1v6a1 1 0 001 1h6a1 1 0 001-1v-5.59l1.71-1.7zM9.59 39L7 41.59V39zM11 43H8.41L11 40.41zM15 28h29v2H15zM15 48h13v2H15zM15 52h29v2H15z"/><path d="M62.71 22.29l-4-4a1 1 0 00-1.42 0L49 26.59V2a1 1 0 00-1-1H2a1 1 0 00-1 1v60a1 1 0 001 1h46a1 1 0 001-1V37.41l13.71-13.7a1 1 0 000-1.42zM34.34 44.75l1.91 1.91-3.35 1.44zM35.41 43L54 24.41 56.59 27 38 45.59zM47 61H3V3h44v25.59L43.59 32H15v2h26.59l-4 4H15v2h20.59l-2 2H15v2h17.48l-2.4 5.61A1 1 0 0031 51a1 1 0 00.39-.08l7-3a1.11 1.11 0 00.32-.21l8.29-8.3zm11-35.41L55.41 23 58 20.41 60.59 23z"/></g></symbol><symbol class="isvg-inline--fa ifa-vuejs ifa-w-14" viewBox="0 0 448 512" id="vuejs"><path fill="currentColor" d="M356.9 64.3H280l-56 88.6-48-88.6H0L224 448 448 64.3h-91.1zm-301.2 32h53.8L224 294.5 338.4 96.3h53.8L224 384.5 55.7 96.3z"/></symbol><symbol viewBox="0 -64 512 512" id="vuetify"><path d="M149.332 106.668c0 23.562-19.102 42.664-42.664 42.664C83.102 149.332 64 130.23 64 106.668 64 83.102 83.102 64 106.668 64c23.562 0 42.664 19.102 42.664 42.668zm0 0"/><path d="M448 0H64C28.715 0 0 28.715 0 64v256c0 1.195.297 2.324.363 3.52-.3 2.558-.172 5.14.766 7.574C6.399 361.09 32.512 384 64 384h384c35.285 0 64-28.715 64-64V64c0-35.285-28.715-64-64-64zM64 42.668h384c11.754 0 21.332 9.578 21.332 21.332v169.367l-112.21-112.215c-14.595-14.593-38.337-14.593-52.907 0L202.668 222.7l-26.883-26.879c-14.59-14.593-38.336-14.593-52.906 0l-80.211 80.211V64c0-11.754 9.578-21.332 21.332-21.332zm0 0"/></symbol></svg>