<?xml version="1.0" encoding="iso-8859-1"?>
<!-- Generator: Adobe Illustrator 19.0.0, SVG Export Plug-In . SVG Version: 6.00 Build 0)  -->
<svg version="1.1" id="Capa_1" xmlns="http://www.w3.org/2000/svg" xmlns:xlink="http://www.w3.org/1999/xlink" x="0px" y="0px"
	 viewBox="0 0 512 512" style="enable-background:new 0 0 512 512;" xml:space="preserve">
<g>
	<g>
		<g>
			<path d="M464,0H48C21.49,0,0,21.49,0,48v416c0,26.51,21.49,48,48,48h416c26.51,0,48-21.49,48-48V48C512,21.49,490.51,0,464,0z
				 M480,464c0,8.837-7.163,16-16,16H48c-8.837,0-16-7.163-16-16V160h448V464z M480,128H32V48c0-8.837,7.163-16,16-16h416
				c8.837,0,16,7.163,16,16V128z"/>
			<rect x="64" y="64" width="32" height="32"/>
			<rect x="128" y="64" width="32" height="32"/>
			<rect x="416" y="64" width="32" height="32"/>
			<polygon points="96,336 128,336 128,384 160,384 160,256 128,256 128,304 96,304 96,256 64,256 64,384 96,384 			"/>
			<polygon points="192,384 224,384 224,288 240,288 240,256 176,256 176,288 192,288 			"/>
			<polygon points="272,384 304,384 304,288 320,288 320,256 256,256 256,288 272,288 			"/>
			<path d="M368,352h64c8.837,0,16-7.163,16-16v-48c0-17.673-14.327-32-32-32h-64c-8.837,0-16,7.163-16,16v112h32V352z M368,288h48
				v32h-48V288z"/>
		</g>
	</g>
</g>
<g>
</g>
<g>
</g>
<g>
</g>
<g>
</g>
<g>
</g>
<g>
</g>
<g>
</g>
<g>
</g>
<g>
</g>
<g>
</g>
<g>
</g>
<g>
</g>
<g>
</g>
<g>
</g>
<g>
</g>
</svg>
