<svg id="Layer_1" data-name="Layer 1" height="512" viewBox="0 0 514.2 514.2" width="512" xmlns="http://www.w3.org/2000/svg"><path d="M493.9 333.5l-66.2-27.4a14.9 14.9 0 01-8.8-16.7v-.2c1.4-7 7.5-12.1 14.6-12.1h31.6a20 20 0 10.5-40h-32c-7.2 0-13.3-5-14.6-12v-.3c-1.5-7 2.2-14 8.7-16.7l66.6-27.6a20 20 0 10-15.3-37l-66.6 27.6a14.8 14.8 0 01-18.3-5.8c-4-6-3.2-13.8 1.8-18.8l22.8-22.7c8-8 7.8-21-.6-28.8-7.9-7.4-20.4-6.8-28 .9l-22.4 22.4c-5 5-12.9 5.7-18.8 1.8l-.4-.3c-5.9-4-8.1-11.5-5.4-18l27.6-66.6a20 20 0 10-37-15.3l-27.6 66.5a14.9 14.9 0 01-16.7 8.9h-.2c-7-1.4-12.1-7.5-12.1-14.6V49a20 20 0 10-40-.5v32c0 7.2-5 13.3-12 14.6h-.3c-7 1.5-14-2.2-16.7-8.8L180.5 20a20 20 0 00-37 15.3l27.6 66.6a14.8 14.8 0 01-5.8 18.3c-6 4-13.8 3.2-18.8-1.8l-22.4-22.4a20.3 20.3 0 00-28-.9 20 20 0 00-.6 28.8l22.8 22.7c5 5 5.7 12.9 1.8 18.8l-.3.4c-4 5.9-11.5 8.1-18 5.4l-66.6-27.6a20 20 0 10-15.3 37L86.4 208a14.9 14.9 0 018.9 16.7v.2c-1.4 7-7.5 12.1-14.6 12.1H49a20 20 0 10-.5 40h32c7.2 0 13.2 5 14.6 12v.3c1.5 7-2.2 14-8.8 16.7L20 333.7a20 20 0 1015.3 37l66.6-27.6a14.8 14.8 0 0118.3 5.8c4 6 3.2 13.8-1.9 18.8L96 390a20 20 0 1028 28.6l22.6-22.7c5-5 12.9-5.7 18.8-1.8l.4.3c5.9 4 8.1 11.4 5.4 18l-27.4 66.1a20.5 20.5 0 0010.8 26.7 20 20 0 0026-10.9l27.6-66.5a14.9 14.9 0 0116.7-8.9h.2c7 1.4 12 7.5 12 14.6v31.6c0 10.9 8.5 20.1 19.4 20.5a20 20 0 0020.7-20v-32c0-7.2 5-13.3 12-14.6h.3c7-1.5 14 2.2 16.7 8.8l27.6 66.5a20 20 0 1037-15.3L343 412.4a14.8 14.8 0 015.8-18.3c5.9-4 13.7-3.2 18.8 1.8l22.7 22.8a20 20 0 0028.3 0 20 20 0 000-28.3l-22.8-22.7c-5-5-5.7-12.9-1.8-18.8l.3-.4c4-5.9 11.4-8.1 18-5.4l66.6 27.6a20 20 0 0026.3-11.3c4-10.2-1.3-21.7-11.4-25.9z" fill="#ff7591"/><circle cx="257.1" cy="257.1" fill="#fff18f" r="125"/><path d="M287 352.1A125 125 0 01185 155 124.8 124.8 0 00257 382c42.3 0 79.6-20.9 102.2-52.9a124.4 124.4 0 01-72.1 22.9z" fill="#f4ce6e"/><path d="M194.6 267a7.5 7.5 0 01-7.5-7.5v-12a7.5 7.5 0 0115 0v12c0 4.2-3.3 7.5-7.5 7.5zM319.5 267a7.5 7.5 0 01-7.5-7.5v-12a7.5 7.5 0 1115 0v12c0 4.2-3.3 7.5-7.5 7.5zM257 274.2c-8.4 0-16.4-3.7-22-10.1a7.5 7.5 0 0111.3-9.9 14.3 14.3 0 0021.6 0 7.5 7.5 0 0111.3 9.9 29.3 29.3 0 01-22.1 10z"/><g><path d="M496.7 326.6l-66-27.4a7.4 7.4 0 01-4.4-8.3V290.6c.7-3.5 3.7-6 7.2-6h31.6a27.6 27.6 0 0028-26.5 27.3 27.3 0 00-27.5-28.5h-32a7.4 7.4 0 01-7.3-6v-.3c-.7-3.5 1.1-7 4.3-8.3l66.6-27.6a27.5 27.5 0 00-21-50.8l-66.7 27.6c-3.2 1.3-7 .2-8.9-2.7l-.3-.4c-1.9-2.9-1.5-6.8 1-9.3l22.7-22.7a27.3 27.3 0 00-.7-39.6 27.6 27.6 0 00-38.6 1L362.3 113a7.3 7.3 0 01-9.2.9l-.4-.3c-3-2-4-5.7-2.7-9L377.6 38a27.5 27.5 0 00-50.8-21l-27.6 66.6a7.4 7.4 0 01-8.3 4.3h-.3c-3.5-.7-6-3.7-6-7.2V49A28 28 0 00258 21a27.3 27.3 0 00-28.5 27.5v32c0 3.6-2.5 6.6-6 7.3h-.3c-3.5.7-7-1.1-8.3-4.3L187.4 17a27.5 27.5 0 00-50.8 21l27.6 66.7c1.3 3.2.2 7-2.7 8.9l-.4.3a7.3 7.3 0 01-9.3-1l-22.4-22.3a28 28 0 00-38.5-1 27.3 27.3 0 00-.7 39.5l22.7 22.7a7.3 7.3 0 011 9.3l-.3.4c-2 3-5.7 4-9 2.7L38 136.6a27.3 27.3 0 00-35.9 14.9c-5.8 14 .9 30.1 14.9 36L83.6 215c3.2 1.3 5 4.8 4.3 8.3v.3c-.7 3.5-3.8 6-7.2 6H49a28 28 0 00-28 26.5 27.3 27.3 0 0027.5 28.5h32c3.6 0 6.6 2.5 7.3 6v.3c.7 3.5-1.1 7-4.3 8.3L17 326.8a27.5 27.5 0 0021 50.8l66.7-27.6c3.2-1.3 7-.2 8.9 2.7l.3.4c1.9 2.9 1.5 6.8-1 9.3l-22.3 22.3a27.9 27.9 0 00-.6 39 27.3 27.3 0 0039.1.3l22.7-22.8a7.3 7.3 0 019.3-.9l.4.3c2.9 2 4 5.7 2.7 9L153.7 435a7.5 7.5 0 1013.8 5.7l10.6-25.5c4-9.8.6-21.2-8.2-27l-.5-.3c-8.8-6-20.6-4.8-28.2 2.7l-22.7 22.8a12.4 12.4 0 01-17.8-.1c-4.7-5-4.5-13 .5-18l22.4-22.3a22.4 22.4 0 002.7-28.2l-.3-.4a22.4 22.4 0 00-27-8.3l-66.7 27.6A12.4 12.4 0 0116 357c-2.7-6.4.4-13.7 6.7-16.4l66.6-27.5c9.8-4.1 15.4-14.7 13.3-25.2v-.2a22.5 22.5 0 00-22-18.1h-32a12.4 12.4 0 01-12.5-13c.2-6.6 6-12 13-12h31.6c10.6 0 19.8-7.6 21.9-18.1v-.2c2.1-10.5-3.5-21.1-13.3-25.2l-66.6-27.6a12.5 12.5 0 019.6-23L98.9 178c9.9 4 21.2.6 27.1-8.2l.3-.5c6-8.8 4.8-20.6-2.7-28.2l-22.8-22.7a12.4 12.4 0 01.3-18 12.9 12.9 0 0117.7.7l22.4 22.4a22.4 22.4 0 0028.2 2.7l.4-.3a22.4 22.4 0 008.3-27l-27.7-66.7a12.5 12.5 0 0123.1-9.6l27.6 66.6c4 9.8 14.7 15.4 25.2 13.3h.2a22.5 22.5 0 0018-22v-32c0-3.4 1.5-6.6 4-9 2.4-2.4 5.6-3.6 9-3.5 6.7.2 12 6 12 13v31.6c0 10.6 7.7 19.8 18.2 21.9h.2c10.5 2.1 21.1-3.5 25.2-13.3l27.5-66.6A12.4 12.4 0 01357 16c6.3 2.6 9.4 10 6.7 16.3L336.1 99c-4 9.8-.6 21.2 8.2 27l.4.3c8.9 6 20.7 4.8 28.3-2.7l22.3-22.4a12.9 12.9 0 0117.7-.7 12.4 12.4 0 01.4 18l-22.8 22.7a22.3 22.3 0 00-2.7 28.2l.3.4a22.4 22.4 0 0027 8.3l66.7-27.6a12.4 12.4 0 0116.3 6.7c2.7 6.4-.4 13.7-6.7 16.4L424.9 201a22.4 22.4 0 00-13.4 25.1v.2l7.4-1.5-7.3 1.6a22.5 22.5 0 0022 18.1h32a12.4 12.4 0 0112.5 13c-.3 6.6-6 12-13 12h-31.6a22.5 22.5 0 00-22 18.2v.1c-2 10.5 3.6 21.1 13.4 25.2l66.1 27.4c6.5 2.6 9.8 10 7.3 16.2a12.4 12.4 0 01-16.4 7l-66.7-27.6c-9.8-4-21.2-.6-27 8.3l-.3.3c-6 8.9-4.8 20.7 2.7 28.3l22.8 22.7a12.5 12.5 0 01-17.7 17.7L373 390.6a22.4 22.4 0 00-28.3-2.7l-.4.3a22.4 22.4 0 00-8.2 27l27.6 66.7a12.5 12.5 0 01-23 9.6L313 424.9a22.5 22.5 0 00-25.2-13.3h-.2a22.5 22.5 0 00-18.1 22v32a12.4 12.4 0 01-13 12.5c-6.6-.2-12-6-12-13v-31.6c0-10.6-7.6-19.8-18.1-21.9h-.3c-10.5-2.1-21 3.5-25 13.3l-27.7 66.6a12.5 12.5 0 01-16.2 6.8c-3-1.2-5.3-3.6-6.6-6.7-1.3-3.3-1.4-7 0-10.2l5.3-13a7.5 7.5 0 10-13.8-5.7l-5.4 13a28.5 28.5 0 000 21.7 27 27 0 0025.2 16.8c11.2 0 21.1-6.7 25.4-17l27.6-66.6c1.3-3.2 4.8-5 8.3-4.3h.3c3.5.7 6 3.7 6 7.2v31.6a28 28 0 0026.5 28 27.3 27.3 0 0028.5-27.5v-32c0-3.6 2.5-6.6 6-7.3h.3c3.5-.7 7 1.1 8.3 4.3l27.6 66.6a27.4 27.4 0 0036 14.9c14-5.8 20.6-22 14.8-36L350 409.6c-1.3-3.2-.2-7 2.7-8.9l.4-.3c2.9-1.9 6.8-1.5 9.2 1l22.8 22.7a27.3 27.3 0 0038.9 0 27.5 27.5 0 000-39l-22.8-22.6a7.3 7.3 0 01-.8-9.3l.2-.4c2-3 5.7-4 8.9-2.7l66.7 27.6a27.3 27.3 0 0036.1-15.5 28 28 0 00-15.6-35.5z"/><path d="M257 139.6c26.7 0 51.8 8.7 72.6 25a7.5 7.5 0 109.3-11.8 132.6 132.6 0 00-214.3 104.3 132.6 132.6 0 10236.8-81.8 7.5 7.5 0 00-11.8 9.3 117.6 117.6 0 01-92.5 190c-64.8 0-117.5-52.7-117.5-117.5S192.3 139.6 257 139.6z"/></g></svg>